<?xml version="1.0" standalone="no"?><svg xmlns="http://www.w3.org/2000/svg" viewBox="0 0 1440 320"><path fill="#000b76" fill-opacity="1" d="M0,128L40,133.3C80,139,160,149,240,128C320,107,400,53,480,53.3C560,53,640,107,720,133.3C800,160,880,160,960,138.7C1040,117,1120,75,1200,58.7C1280,43,1360,53,1400,58.7L1440,64L1440,320L1400,320C1360,320,1280,320,1200,320C1120,320,1040,320,960,320C880,320,800,320,720,320C640,320,560,320,480,320C400,320,320,320,240,320C160,320,80,320,40,320L0,320Z"></path></svg>